<svg id="Layer_1" data-name="Layer 1" xmlns="http://www.w3.org/2000/svg" viewBox="0 0 586.5 158.8"><defs><style>.cls-1{isolation:isolate;}.cls-2{fill:#fff;}.cls-3{fill:#ec008c;}</style></defs><title>popcorn-logo</title><g class="cls-1"><path class="cls-2" d="M35.4,49L28.9,81.1c7.8-16.8,16.3-31.3,32.7-31.3,13.3,0,22,9,22,24.4,0,18.3-13.1,48.4-46.1,48.4-7.8,0-12.5-1.4-17.1-2.6l-8.3,38.8H0L17.6,77.6c2.6-11.2,2.9-13,4.9-24.3L9,55.1,8.7,52.8Zm-0.9,70.9c14.1,0,21.8-7.5,27.3-17.3,3.8-6.4,9-19.1,9-30.4,0-12.5-6.6-18.5-13.8-18.5-4.9,0-9.2,2.6-12.4,5.8-14.5,14.2-20.6,42.9-23.5,57C25.1,118.4,28.3,119.9,34.5,119.9Z"/><path class="cls-2" d="M163,79.4c0,16.3-11.2,44-39.6,44-14.2,0-30.3-7.8-30.3-30.1,0-20.3,14.1-43.7,38.7-44.3C149.1,48.5,163,59.7,163,79.4ZM134,51.3c-11.9,0-17.1,9.6-19.1,13.1-7.6,14.5-9.3,32.4-9.3,36.1,0,12.1,6.1,20.6,17,20.6s15.6-7.5,18.5-13.3c6.4-12.2,9.3-27,9.3-35.6a32.54,32.54,0,0,0-2.1-11.9A15.07,15.07,0,0,0,134,51.3Z"/><path class="cls-2" d="M200.9,49l-6.6,32.1c7.8-16.8,16.3-31.3,32.7-31.3,13.3,0,22,9,22,24.4,0,18.3-13.1,48.4-46.1,48.4-7.8,0-12.5-1.4-17.1-2.6l-8.3,38.8H165.4L183,77.5c2.6-11.2,2.9-13,4.9-24.3L174.5,55l-0.3-2.3ZM200,119.9c14.1,0,21.8-7.5,27.3-17.3,3.8-6.4,9-19.1,9-30.4,0-12.5-6.6-18.5-13.8-18.5-4.9,0-9.2,2.6-12.4,5.8-14.5,14.2-20.6,42.9-23.5,57C190.5,118.4,193.7,119.9,200,119.9Z"/><path class="cls-2" d="M311.7,104.8c-11.2,17.3-24.1,18.6-29.3,18.6-10.7,0-24.4-6.7-24.4-26C258,76.8,273.7,49,298.6,49c12.2,0,18.5,7.5,18.5,15.3,0,6.7-4.4,10.4-9,10.4a7.55,7.55,0,1,1-.3-15.1,7.87,7.87,0,0,1,6,3.2c0.3,0.6.6,1.4,0.9,2.1V63.4c0-4.1-3.5-11.8-13.3-11.8-17.3,0-31,29.5-31,47.7,0,8.9,3.5,20.9,15.1,20.9,10.1,0,17.9-7.2,24.1-16.7Z"/><path class="cls-2" d="M389,79.4c0,16.3-11.2,44-39.6,44-14.2,0-30.3-7.8-30.3-30.1,0-20.3,14.1-43.7,38.7-44.3C375.1,48.5,389,59.7,389,79.4ZM359.9,51.3c-11.9,0-17.1,9.6-19.1,13.1-7.6,14.5-9.3,32.4-9.3,36.1,0,12.1,6.1,20.6,17,20.6s15.6-7.5,18.5-13.3c6.4-12.2,9.3-27,9.3-35.6a32.54,32.54,0,0,0-2.1-11.9C370.8,52.8,364.2,51.3,359.9,51.3Z"/><path class="cls-2" d="M418.9,90.4c7-17,19.4-42,32.7-42a9,9,0,0,1,9.3,8.7,8.43,8.43,0,0,1-8.6,8.4c-4.7,0-8.4-3.5-8.4-8.9a29.63,29.63,0,0,1,.3-3.1c-20.9,19.1-28.6,52.4-31.9,67.1H400.6l14.1-67.2-13.4,1.8-0.2-2.3,26.7-4Z"/><path class="cls-2" d="M489.3,48.9l-8.4,40.8c4.4-11,9.6-23.4,18.8-32.4,6-6,11.5-8.3,18.6-8.3,10.5,0,18.9,6,18.9,16.7a41.76,41.76,0,0,1-1.1,7.9l-7.8,29a37.68,37.68,0,0,0-1.5,10.1c0,3.4,1.7,6,5,6,4.4,0,7.6-5.5,10.8-16.3l2.1,0.5c-2.9,10.5-6.6,19.9-16.7,19.9-4.6,0-12.7-2.6-12.7-13.3a48.25,48.25,0,0,1,1.4-9.6l7-26.6a37.69,37.69,0,0,0,1.5-9.5c0-11.5-9.3-11.5-10.8-11.5-10.4,0-17.7,11.6-20.5,15.7-10.1,15.7-15.4,34.5-19.9,52.7H462.1l14.1-67.5-13.6,2.1L462.1,53Z"/></g><g class="cls-1"><path class="cls-3" d="M568.9,18.4h13.3a4.5,4.5,0,0,1,3.1,1.1,3.92,3.92,0,0,1,1.2,3,3.92,3.92,0,0,1-1.2,3,4.3,4.3,0,0,1-3.1,1.2H568.9V40.6a4.14,4.14,0,0,1-1.2,3.1,4.07,4.07,0,0,1-3,1.2,4,4,0,0,1-3-1.3,4.47,4.47,0,0,1-1.2-3.1V26.6H547.2a4.14,4.14,0,0,1-3.1-1.2,4.07,4.07,0,0,1-1.2-3,3.74,3.74,0,0,1,1.3-2.9,4.3,4.3,0,0,1,3.1-1.2h13.3V4.4a4.54,4.54,0,0,1,1.2-3.2,4.35,4.35,0,0,1,6,0A4.3,4.3,0,0,1,569,4.3V18.4h-0.1Z"/></g></svg>